<svg xmlns="http://www.w3.org/2000/svg" width="630" height="630" viewBox="0 0 630 630" fill="none" stroke="currentColor" stroke-width="30" stroke-linecap="round" stroke-linejoin="round" class="lucide lucide-hand-heart-icon lucide-hand-heart"><path d="M288.75 367.5h52.5a52.5 52.5 0 1 0 0 -105H262.5c-15.75 0 -28.875 5.25 -36.75 15.75l-147 141.75"/><path d="m183.75 525 42 -36.75c7.875 -10.5 21 -15.75 36.75 -15.75h105c28.875 0 55.125 -10.5 73.5 -31.5l120.75 -115.5a52.5 52.5 0 0 0 -72.188 -76.388l-110.25 102.375"/><path d="m52.5 393.75 157.5 157.5"/><path d="M511.875 223.125c18.375 -18.375 39.375 -42 39.375 -70.875A71.663 71.663 0 0 0 420 105a72.975 72.975 0 0 0 -131.25 47.25c0 31.5 21 52.5 39.375 73.5L420 315Z"/></svg>