<svg xmlns="http://www.w3.org/2000/svg" viewBox="0 3.91 38 16" data-asc="0.96875" width="64" height="64"><defs/><g><g fill="#000000"><g><path d="M7.25 7.182q-0.095 -1.151 -0.937 -1.86 -0.842 -0.713 -2.172 -0.713 -0.899 0 -1.599 0.333t-1.096 0.903q-0.397 0.574 -0.397 1.314 0 0.479 0.183 0.859 0.183 0.384 0.523 0.682 0.336 0.299 0.801 0.523 0.465 0.221 1.025 0.39l1.347 0.397q0.696 0.21 1.283 0.489t1.025 0.658q0.434 0.384 0.679 0.896t0.244 1.181q0 0.978 -0.502 1.748t-1.429 1.215q-0.923 0.441 -2.179 0.441 -1.191 0 -2.077 -0.404 -0.882 -0.404 -1.395 -1.123Q0.068 14.391 0 13.451h0.77q0.061 0.767 0.492 1.324t1.147 0.859q0.72 0.302 1.639 0.302 0.994 0 1.755 -0.343 0.76 -0.339 1.188 -0.947 0.428 -0.611 0.428 -1.419 0 -0.648 -0.309 -1.113 -0.305 -0.465 -0.906 -0.801 -0.601 -0.339 -1.487 -0.604l-1.439 -0.434q-1.446 -0.438 -2.21 -1.198Q0.309 8.316 0.309 7.182q0 -0.95 0.506 -1.69 0.506 -0.737 1.375 -1.157 0.872 -0.424 1.969 -0.424 1.103 0 1.948 0.428 0.842 0.424 1.337 1.161 0.492 0.74 0.546 1.683zm3.622 12.728v-12.728h0.716v2.067h0.092q0.217 -0.594 0.611 -1.096 0.397 -0.499 0.984 -0.804 0.587 -0.302 1.381 -0.302 1.12 0 1.952 0.614t1.29 1.697q0.458 1.079 0.458 2.478t-0.458 2.481q-0.462 1.083 -1.29 1.7 -0.832 0.618 -1.938 0.618 -0.791 0 -1.385 -0.302t-0.994 -0.804q-0.401 -0.506 -0.611 -1.106h-0.071v5.488zm0.723 -8.081q0 1.181 0.363 2.115 0.36 0.93 1.035 1.47T14.601 15.952q0.947 0 1.626 -0.546 0.675 -0.543 1.035 -1.48 0.36 -0.933 0.36 -2.098 0 -1.161 -0.356 -2.091 -0.356 -0.927 -1.032 -1.466 -0.672 -0.54 -1.633 -0.54 -0.947 0 -1.619 0.533t-1.028 1.459q-0.36 0.923 -0.36 2.104m9.337 4.613V7.182h0.726v9.259zm0.367 -10.895q-0.241 0 -0.421 -0.17 -0.176 -0.17 -0.176 -0.411t0.176 -0.411q0.173 -0.166 0.421 -0.166 0.241 0 0.417 0.166 0.18 0.17 0.18 0.411t-0.176 0.411q-0.173 0.17 -0.421 0.17m3.445 10.895V7.182h0.72v1.449h0.064q0.302 -0.713 1.018 -1.144 0.72 -0.431 1.636 -0.431h0.19q0.098 0 0.183 0.007v0.74q-0.075 -0.003 -0.173 -0.02 -0.098 -0.014 -0.244 -0.014 -0.77 0 -1.371 0.329 -0.597 0.333 -0.944 0.913 -0.343 0.584 -0.343 1.33v6.099zm5.824 0V7.182h0.73v9.259zm0.367 -10.895q-0.241 0 -0.417 -0.17 -0.18 -0.17 -0.18 -0.411t0.176 -0.411q0.173 -0.166 0.421 -0.166 0.241 0 0.417 0.166 0.18 0.17 0.18 0.411t-0.176 0.411q-0.173 0.17 -0.421 0.17m6.72 1.636v0.658H33.609v-0.658zm-2.678 -2.216h0.73v9.286q0 0.567 0.221 0.927 0.221 0.356 0.58 0.529 0.356 0.173 0.767 0.173 0.197 0 0.346 -0.031 0.146 -0.031 0.282 -0.078l0.18 0.669q-0.17 0.061 -0.373 0.105 -0.207 0.044 -0.482 0.044 -0.58 0 -1.096 -0.258 -0.513 -0.261 -0.832 -0.753 -0.322 -0.496 -0.322 -1.195z"/></g></g></g></svg>